<?xml version="1.0" encoding="utf-8"?>
<!-- Generator: Adobe Illustrator 25.4.1, SVG Export Plug-In . SVG Version: 6.00 Build 0)  -->
<svg version="1.1" xmlns="http://www.w3.org/2000/svg" xmlns:xlink="http://www.w3.org/1999/xlink" x="0px" y="0px"
	 viewBox="0 0 509.37 185.88" style="enable-background:new 0 0 509.37 185.88;" xml:space="preserve">
<style type="text/css">
	.st0{fill:#4C4C4C;}
	.st1{fill:#808080;}
	.st2{display:none;}
	.st3{display:inline;}
	.st4{fill:none;stroke:#ED1C24;stroke-width:0.3175;stroke-miterlimit:10;stroke-dasharray:2.1169;}
	.st5{display:inline;fill:none;stroke:#ED1C24;stroke-width:0.3175;stroke-miterlimit:10;stroke-dasharray:2.1169;}
	.st6{display:inline;fill:none;stroke:#ED1C24;stroke-width:0.3;stroke-miterlimit:10;stroke-dasharray:2;}
	.st7{display:inline;fill:none;stroke:#ED1C24;stroke-width:0.3;stroke-miterlimit:10;stroke-dasharray:1.9999;}
	.st8{fill:none;stroke:#ED1C24;stroke-width:0.3;stroke-miterlimit:10;}
	.st9{fill:#ED1C24;}
	.st10{display:inline;fill:#ED1C24;}
	.st11{display:inline;opacity:0.15;fill:#ED1C24;}
	.st12{display:inline;fill:none;stroke:#ED1C24;stroke-width:0.317;stroke-miterlimit:10;stroke-dasharray:2.1132;}
</style>
<g id="Logo">
	<g>
		<path class="st0" d="M264.17,112.24V67.16l-39.04-22.54v17.29l15.3,8.83c0.55,0.31,0.57,1.17,0,1.48c0,0-18.18,10.5-18.18,10.5
			c-0.55,0.32-1.2,0.3-1.71,0l-18.18-10.5c-0.56-0.3-0.57-1.18,0-1.48l15.29-8.83l0-17.29l-39.04,22.54v45.08l0-0.21v0.21
			l14.97-8.64l0-17.66c-0.01-0.63,0.73-1.08,1.28-0.74l18.18,10.5c0.55,0.32,0.86,0.89,0.86,1.48l0,20.99
			c0.01,0.63-0.73,1.08-1.28,0.74l-15.3-8.83l-14.97,8.64l39.04,22.54l39.04-22.54l-14.97-8.64l-15.3,8.83
			c-0.54,0.33-1.3-0.1-1.28-0.74c0,0,0-20.99,0-20.99c0-0.63,0.35-1.19,0.86-1.48l18.18-10.5c0.54-0.33,1.3,0.09,1.28,0.74v17.66
			L264.17,112.24z"/>
		<path d="M221.39,141.26l39.04-22.54l-14.97-8.64l-15.3,8.83c-0.54,0.33-1.3-0.1-1.28-0.74c0,0,0-20.99,0-20.99
			c0-0.63,0.35-1.19,0.86-1.48l18.18-10.5c0.54-0.33,1.3,0.09,1.28,0.74c0,0,0,17.66,0,17.66l14.97,8.64V67.16l-42.78,24.7
			L221.39,141.26z"/>
		<path class="st1" d="M225.13,44.62v17.29l15.3,8.83c0.55,0.31,0.57,1.17,0,1.48c0,0-18.18,10.5-18.18,10.5
			c-0.55,0.32-1.2,0.3-1.71,0l-18.18-10.5c-0.56-0.3-0.57-1.18,0-1.48c0,0,15.29-8.83,15.29-8.83l0-17.29l-39.04,22.54l42.78,24.7
			l42.78-24.7L225.13,44.62z"/>
		<path class="st0" d="M212.63,118.91l-15.3-8.83l-14.97,8.64l39.04,22.54l0-49.4l-42.78-24.7v45.08l0-0.21v0.21l14.97-8.64l0-17.66
			c-0.01-0.63,0.73-1.08,1.28-0.74c0,0,18.18,10.5,18.18,10.5c0.55,0.32,0.86,0.89,0.86,1.48l0,20.99
			C213.92,118.8,213.18,119.25,212.63,118.91z"/>
		<g>
			<path d="M314,97.42c0,4.55-2.53,7.79-7.86,7.79c-5.65,0-7.99-3.05-7.99-7.6v-27.8h-11.5v27.41c0,10.85,6.49,17.21,19.48,17.21
				c12.92,0,19.35-6.49,19.35-17.21V69.82H314V97.42z"/>
			<path d="M351.55,79.37c-4.61,0-7.79,1.95-10.26,5.52h-0.2v-4.55h-10.2v33.25h10.59V95.22c0-4.09,2.34-7.01,5.84-7.01
				c3.44,0,5.2,2.4,5.2,5.91v19.48h10.59V91.97C363.11,84.57,358.82,79.37,351.55,79.37z"/>
			<rect x="368.55" y="67.16" width="10.59" height="8.58"/>
			<rect x="368.55" y="80.34" width="10.59" height="33.25"/>
			<path d="M397.79,69.82h-10.33v10.52h-4.42v8.58h4.42v15.91c0,7.14,4.42,9.16,10.59,9.16c2.86,0,4.87-0.26,5.78-0.52v-7.73
				c-0.39,0-1.43,0.07-2.34,0.07c-2.27,0-3.7-0.65-3.7-3.25V88.92h6.04v-8.58h-6.04V69.82z"/>
			<path d="M426.37,94.5c-1.04,3.25-1.95,7.66-1.95,7.66h-0.13c0,0-1.04-4.42-2.08-7.66l-4.48-14.16h-11.17l9.81,25.59
				c1.36,3.51,2.01,5.46,2.01,6.88c0,2.27-1.23,3.51-4.35,3.51h-3.64v8.25h6.88c6.69,0,9.87-2.73,12.53-10.52l11.5-33.71h-10.59
				L426.37,94.5z"/>
			<path d="M464.06,85.51c-0.44-1.03-1.05-1.93-1.82-2.7c-0.78-0.78-1.68-1.38-2.7-1.82c-1.02-0.44-2.12-0.66-3.3-0.66
				s-2.27,0.22-3.3,0.66c-1.03,0.44-1.93,1.04-2.7,1.82s-1.38,1.68-1.82,2.7c-0.44,1.03-0.66,2.12-0.66,3.3
				c0,1.17,0.22,2.27,0.66,3.3c0.44,1.03,1.04,1.93,1.82,2.7s1.68,1.38,2.7,1.82c1.03,0.44,2.12,0.66,3.3,0.66s2.27-0.22,3.3-0.66
				c1.03-0.44,1.93-1.04,2.7-1.82c0.78-0.78,1.38-1.68,1.82-2.7c0.44-1.03,0.66-2.12,0.66-3.3
				C464.72,87.63,464.5,86.54,464.06,85.51z M461.82,92.05c-0.58,0.98-1.36,1.75-2.33,2.33c-0.98,0.58-2.06,0.87-3.25,0.87
				c-1.19,0-2.27-0.29-3.24-0.87c-0.97-0.58-1.75-1.36-2.33-2.33c-0.58-0.97-0.87-2.06-0.87-3.24c0-1.19,0.29-2.27,0.87-3.24
				c0.58-0.98,1.36-1.75,2.33-2.33c0.97-0.58,2.06-0.87,3.24-0.87c1.19,0,2.27,0.29,3.25,0.87c0.97,0.58,1.75,1.36,2.33,2.33
				c0.58,0.97,0.87,2.06,0.87,3.24C462.68,90,462.39,91.08,461.82,92.05z"/>
			<path d="M459.22,88.76c0.28-0.4,0.42-0.88,0.42-1.46c0-0.56-0.13-1.03-0.4-1.4c-0.26-0.37-0.59-0.65-0.96-0.83
				c-0.37-0.18-0.72-0.27-1.04-0.27h-3.96v7.82h1.72v-2.65h1.7l1.37,2.65h1.89l-1.61-3.05C458.68,89.38,458.97,89.11,459.22,88.76z
				 M457.34,88.35c-0.27,0.23-0.52,0.35-0.76,0.35h-1.59v-2.63h1.63c0.21,0,0.44,0.08,0.72,0.26c0.27,0.17,0.41,0.5,0.41,0.97
				C457.74,87.77,457.61,88.12,457.34,88.35z"/>
		</g>
		<g>
			<g>
				<path d="M49.51,67.14l5.16,12.62h0.22l5.16-12.62h4.89v18.78H61.1V73.7h-0.16l-4.85,12.13h-2.62l-4.85-12.18h-0.16v12.27h-3.84
					V67.14H49.51z"/>
				<path d="M74.14,85.92l6.47-18.78h5.11l6.46,18.78h-4.25l-1.39-4.28h-6.77l-1.39,4.28H74.14z M85.54,78.54l-2.31-7.11h-0.15
					l-2.31,7.11H85.54z"/>
				<path d="M101.38,85.92V67.14h6.7c5.66,0,9.12,3.52,9.12,9.37c0,5.87-3.46,9.41-9.17,9.41H101.38z M107.86,82.52
					c3.53,0,5.38-1.82,5.38-6.01c0-4.17-1.86-5.97-5.37-5.97h-2.53v11.98H107.86z"/>
				<path d="M127.08,67.14h12.63v3.27h-8.67v4.48h8.02v3.27h-8.02v4.48h8.71v3.27h-12.67V67.14z"/>
				<path d="M50.48,94.83h4.33l3.1,13.05h0.16l3.42-13.05h3.71l3.42,13.08h0.17l3.1-13.08h4.33l-5.37,18.78h-3.86l-3.57-12.28h-0.15
					l-3.56,12.28h-3.86L50.48,94.83z"/>
				<path d="M89.24,113.61h-3.96V94.83h3.96V113.61z"/>
				<path d="M98.75,94.83h15.4v3.27h-5.74v15.51h-3.92V98.1h-5.74V94.83z"/>
				<path d="M123.64,94.83h3.96v7.75h8.05v-7.75h3.96v18.78h-3.96v-7.76h-8.05v7.76h-3.96V94.83z"/>
			</g>
		</g>
	</g>
</g>
<g id="Guides" class="st2">
	<g class="st3">
		<line class="st4" x1="0" y1="67.16" x2="509.36" y2="67.16"/>
	</g>
	<line class="st5" x1="0" y1="113.6" x2="509.36" y2="113.6"/>
	<line class="st6" x1="178.61" y1="185.88" x2="178.61" y2="0"/>
	<line class="st6" x1="249.18" y1="185.88" x2="249.18" y2="0"/>
	<line class="st7" x1="330.9" y1="185.87" x2="330.9" y2="0"/>
	<line class="st7" x1="363.11" y1="185.87" x2="363.11" y2="0"/>
	<line class="st7" x1="368.55" y1="185.87" x2="368.55" y2="0"/>
	<line class="st6" x1="441.31" y1="185.87" x2="441.31" y2="0"/>
	<line class="st6" x1="447.75" y1="0" x2="447.75" y2="185.87"/>
	<line class="st6" x1="464.75" y1="0" x2="464.75" y2="185.87"/>
	<g class="st3">
		<g>
			<line class="st8" x1="172.62" y1="46.34" x2="172.62" y2="138.41"/>
			<g>
				<rect x="171.64" y="46.19" class="st9" width="1.95" height="0.3"/>
			</g>
			<g>
				<rect x="171.64" y="138.26" class="st9" width="1.95" height="0.3"/>
			</g>
		</g>
	</g>
	<path class="st10" d="M442.38,164.39l0.11,0c0.07-0.01,0.13-0.02,0.17-0.05c0.04-0.02,0.07-0.06,0.09-0.12l0.45-1.64
		c0.01-0.03,0.01-0.05,0.02-0.07c0-0.02,0.01-0.04,0.01-0.05c0-0.04-0.01-0.06-0.04-0.08c-0.03-0.01-0.06-0.02-0.12-0.02l-0.16,0.01
		v-0.05l0.04-0.01c0.03,0,0.11-0.02,0.24-0.05c0.13-0.03,0.22-0.04,0.28-0.06l0.05-0.01l0.03,0l0.02,0.01c0,0.01,0,0.01,0,0.02
		c0,0.01,0,0.01,0,0.02l-0.54,1.99c0,0.01,0,0.02-0.01,0.03c0,0.01,0,0.02,0,0.03c0,0.04,0.02,0.07,0.06,0.08s0.11,0.02,0.23,0.02
		v0.05h-0.93V164.39z"/>
	<path class="st10" d="M444.69,162.26h0.16l-0.84,2.24h-0.16L444.69,162.26z"/>
	<path class="st10" d="M445,164.45c-0.1-0.03-0.15-0.09-0.15-0.17c0-0.04,0.01-0.08,0.04-0.1c0.03-0.02,0.06-0.04,0.09-0.04
		c0.04,0,0.11,0.03,0.19,0.09c0.08,0.06,0.16,0.1,0.22,0.1c0.14,0,0.27-0.07,0.39-0.2c0.12-0.13,0.18-0.3,0.18-0.49
		c0-0.22-0.08-0.38-0.25-0.48c-0.09-0.06-0.26-0.11-0.48-0.15v-0.05l0.35-0.73h0.85l-0.08,0.24h-0.76l-0.14,0.29
		c0.24,0.04,0.43,0.12,0.56,0.25c0.13,0.13,0.19,0.3,0.19,0.52c0,0.24-0.1,0.46-0.29,0.66c-0.2,0.19-0.44,0.29-0.72,0.29
		C445.13,164.47,445.06,164.46,445,164.45z"/>
	<path class="st10" d="M443.54,166.26c-0.1,0.11-0.18,0.21-0.25,0.3c-0.11,0.16-0.2,0.35-0.27,0.57c-0.06,0.19-0.1,0.38-0.13,0.55
		c-0.02,0.17-0.04,0.32-0.04,0.44c0,0.18,0.01,0.33,0.03,0.45c0.02,0.12,0.06,0.27,0.13,0.46l-0.06,0.02c-0.12-0.2-0.2-0.4-0.25-0.6
		c-0.05-0.2-0.08-0.4-0.08-0.6c0-0.26,0.04-0.5,0.13-0.7c0.13-0.3,0.38-0.61,0.73-0.93L443.54,166.26z"/>
	<path class="st10" d="M443.55,168.88c0.02-0.03,0.05-0.04,0.09-0.04c0.03,0,0.05,0.01,0.07,0.02c0.02,0.01,0.04,0.03,0.06,0.04
		l0.02,0.02c0.01,0.01,0.01,0.01,0.02,0.01s0.02,0,0.03,0c0.05,0,0.14-0.07,0.26-0.21s0.18-0.24,0.18-0.3
		c0-0.06-0.02-0.18-0.06-0.36c-0.04-0.18-0.08-0.33-0.12-0.47c-0.05-0.19-0.1-0.33-0.14-0.39c-0.04-0.07-0.11-0.1-0.19-0.1
		c-0.01,0-0.02,0-0.03,0s-0.04,0-0.08,0.01v-0.05l0.44-0.09l0.03,0c0.03,0,0.08,0.12,0.16,0.37c0.07,0.22,0.11,0.38,0.13,0.48
		l0.07,0.39c0.11-0.19,0.2-0.34,0.25-0.44c0.1-0.2,0.16-0.34,0.16-0.42c0-0.02,0-0.04-0.01-0.05c-0.01-0.02-0.02-0.03-0.05-0.05
		l-0.03-0.01c-0.02-0.01-0.04-0.03-0.06-0.05c-0.02-0.02-0.04-0.06-0.04-0.1c0-0.03,0.01-0.06,0.03-0.08s0.05-0.03,0.1-0.03
		c0.05,0,0.1,0.02,0.13,0.05c0.03,0.03,0.05,0.09,0.05,0.16c0,0.12-0.06,0.3-0.19,0.56c-0.1,0.2-0.21,0.38-0.33,0.57
		c-0.15,0.23-0.28,0.41-0.39,0.53c-0.17,0.2-0.31,0.29-0.43,0.29c-0.04,0-0.08-0.01-0.12-0.04s-0.05-0.06-0.05-0.11
		C443.52,168.93,443.53,168.9,443.55,168.88z"/>
	<path class="st10" d="M445.13,168.98c0.11-0.12,0.2-0.23,0.26-0.31c0.1-0.16,0.19-0.34,0.25-0.55c0.06-0.18,0.1-0.36,0.13-0.53
		s0.04-0.34,0.04-0.49c0-0.19-0.02-0.36-0.05-0.51c-0.03-0.15-0.07-0.27-0.11-0.36l0.06-0.02c0.1,0.17,0.18,0.35,0.24,0.56
		c0.06,0.21,0.09,0.42,0.09,0.63c0,0.24-0.04,0.46-0.11,0.64c-0.13,0.34-0.38,0.67-0.76,0.99L445.13,168.98z"/>
	<path class="st10" d="M363.69,164.39l0.11,0c0.07-0.01,0.13-0.02,0.17-0.05c0.04-0.02,0.07-0.06,0.09-0.12l0.45-1.64
		c0.01-0.03,0.01-0.05,0.02-0.07c0-0.02,0.01-0.04,0.01-0.05c0-0.04-0.01-0.06-0.04-0.08c-0.03-0.01-0.06-0.02-0.12-0.02l-0.16,0.01
		v-0.05l0.04-0.01c0.03,0,0.11-0.02,0.24-0.05c0.13-0.03,0.22-0.04,0.28-0.06l0.05-0.01l0.03,0l0.02,0.01c0,0.01,0,0.01,0,0.02
		c0,0.01,0,0.01,0,0.02l-0.54,1.99c0,0.01,0,0.02-0.01,0.03c0,0.01,0,0.02,0,0.03c0,0.04,0.02,0.07,0.06,0.08s0.11,0.02,0.23,0.02
		v0.05h-0.93V164.39z"/>
	<path class="st10" d="M366.01,162.26h0.16l-0.84,2.24h-0.16L366.01,162.26z"/>
	<path class="st10" d="M364.86,166.26c-0.1,0.11-0.18,0.21-0.25,0.3c-0.11,0.16-0.2,0.35-0.27,0.57c-0.06,0.19-0.1,0.38-0.13,0.55
		c-0.02,0.17-0.04,0.32-0.04,0.44c0,0.18,0.01,0.33,0.03,0.45c0.02,0.12,0.06,0.27,0.13,0.46l-0.06,0.02c-0.12-0.2-0.2-0.4-0.25-0.6
		c-0.05-0.2-0.08-0.4-0.08-0.6c0-0.26,0.04-0.5,0.13-0.7c0.13-0.3,0.38-0.61,0.73-0.93L364.86,166.26z"/>
	<path class="st10" d="M364.87,168.88c0.02-0.03,0.05-0.04,0.09-0.04c0.03,0,0.05,0.01,0.07,0.02c0.02,0.01,0.04,0.03,0.06,0.04
		l0.02,0.02c0.01,0.01,0.01,0.01,0.02,0.01s0.02,0,0.03,0c0.05,0,0.14-0.07,0.26-0.21s0.18-0.24,0.18-0.3
		c0-0.06-0.02-0.18-0.06-0.36c-0.04-0.18-0.08-0.33-0.12-0.47c-0.05-0.19-0.1-0.33-0.14-0.39c-0.04-0.07-0.11-0.1-0.19-0.1
		c-0.01,0-0.02,0-0.03,0s-0.04,0-0.08,0.01v-0.05l0.44-0.09l0.03,0c0.03,0,0.08,0.12,0.16,0.37c0.07,0.22,0.11,0.38,0.13,0.48
		l0.07,0.39c0.11-0.19,0.2-0.34,0.25-0.44c0.1-0.2,0.16-0.34,0.16-0.42c0-0.02,0-0.04-0.01-0.05c-0.01-0.02-0.02-0.03-0.05-0.05
		l-0.03-0.01c-0.02-0.01-0.04-0.03-0.06-0.05c-0.02-0.02-0.04-0.06-0.04-0.1c0-0.03,0.01-0.06,0.03-0.08s0.05-0.03,0.1-0.03
		c0.05,0,0.1,0.02,0.13,0.05c0.03,0.03,0.05,0.09,0.05,0.16c0,0.12-0.06,0.3-0.19,0.56c-0.1,0.2-0.21,0.38-0.33,0.57
		c-0.15,0.23-0.28,0.41-0.39,0.53c-0.17,0.2-0.31,0.29-0.43,0.29c-0.04,0-0.08-0.01-0.12-0.04s-0.05-0.06-0.05-0.11
		C364.83,168.93,364.85,168.9,364.87,168.88z"/>
	<path class="st10" d="M366.45,168.98c0.11-0.12,0.2-0.23,0.26-0.31c0.1-0.16,0.19-0.34,0.25-0.55c0.06-0.18,0.1-0.36,0.13-0.53
		s0.04-0.34,0.04-0.49c0-0.19-0.02-0.36-0.05-0.51c-0.03-0.15-0.07-0.27-0.11-0.36l0.06-0.02c0.1,0.17,0.18,0.35,0.24,0.56
		c0.06,0.21,0.09,0.42,0.09,0.63c0,0.24-0.04,0.46-0.11,0.64c-0.13,0.34-0.38,0.67-0.76,0.99L366.45,168.98z"/>
	<path class="st10" d="M255.46,162.27c-0.1,0.11-0.18,0.21-0.25,0.3c-0.11,0.16-0.2,0.35-0.27,0.57c-0.06,0.19-0.1,0.38-0.13,0.55
		c-0.02,0.17-0.04,0.32-0.04,0.44c0,0.18,0.01,0.33,0.03,0.45c0.02,0.12,0.06,0.27,0.13,0.46l-0.06,0.02c-0.12-0.2-0.2-0.4-0.25-0.6
		c-0.05-0.2-0.08-0.4-0.08-0.6c0-0.26,0.04-0.5,0.13-0.7c0.13-0.3,0.38-0.61,0.73-0.93L255.46,162.27z"/>
	<path class="st10" d="M255.47,164.24c0.03-0.02,0.05-0.03,0.08-0.03c0.01,0,0.03,0,0.04,0.01c0.01,0,0.03,0.01,0.04,0.02l0.06,0.03
		c0.01,0,0.01,0.01,0.02,0.01s0.01,0,0.02,0c0.03,0,0.05-0.01,0.06-0.02s0.05-0.06,0.11-0.14c0.04-0.05,0.13-0.18,0.27-0.39
		c0-0.01-0.01-0.07-0.04-0.17c-0.03-0.11-0.05-0.2-0.07-0.28s-0.04-0.13-0.06-0.15c-0.02-0.02-0.05-0.04-0.09-0.04
		c-0.01,0-0.04,0-0.09,0.02c-0.03,0.01-0.06,0.01-0.09,0.02l-0.01-0.05l0.18-0.06c0.05-0.02,0.09-0.03,0.13-0.04
		c0.04-0.01,0.07-0.01,0.1-0.01c0.05,0,0.08,0.01,0.1,0.04c0.04,0.04,0.06,0.13,0.09,0.26l0.03,0.18c0.1-0.15,0.17-0.25,0.23-0.31
		c0.05-0.05,0.09-0.1,0.14-0.12c0.04-0.03,0.08-0.04,0.12-0.04c0.04,0,0.07,0.01,0.09,0.02c0.04,0.02,0.06,0.06,0.06,0.11
		c0,0.04-0.01,0.07-0.03,0.09s-0.05,0.03-0.08,0.03c-0.01,0-0.02,0-0.03,0c-0.01,0-0.02-0.01-0.03-0.01l-0.04-0.02
		c-0.01-0.01-0.02-0.01-0.03-0.01c-0.01,0-0.02,0-0.02,0c-0.05,0-0.12,0.06-0.2,0.19s-0.13,0.2-0.13,0.22
		c0,0.02,0.01,0.07,0.03,0.16c0.02,0.09,0.04,0.18,0.07,0.28c0.02,0.09,0.04,0.16,0.06,0.19c0.02,0.06,0.05,0.09,0.08,0.09
		c0.03,0,0.06-0.02,0.09-0.05s0.08-0.09,0.14-0.17l0.04,0.03c-0.05,0.08-0.09,0.16-0.14,0.22c-0.09,0.11-0.18,0.17-0.27,0.17
		c-0.05,0-0.1-0.03-0.13-0.08c-0.02-0.03-0.04-0.08-0.05-0.15l-0.1-0.4l-0.33,0.44c-0.07,0.08-0.12,0.13-0.15,0.15
		c-0.04,0.03-0.08,0.04-0.13,0.04c-0.07,0-0.12-0.02-0.14-0.07c-0.01-0.02-0.02-0.05-0.02-0.08
		C255.43,164.29,255.44,164.26,255.47,164.24z"/>
	<path class="st10" d="M257.05,164.99c0.11-0.12,0.2-0.23,0.26-0.31c0.1-0.16,0.19-0.34,0.25-0.55c0.06-0.18,0.1-0.36,0.13-0.53
		s0.04-0.34,0.04-0.49c0-0.19-0.02-0.36-0.05-0.51c-0.03-0.15-0.07-0.27-0.11-0.36l0.06-0.02c0.1,0.17,0.18,0.35,0.24,0.56
		c0.06,0.21,0.09,0.42,0.09,0.63c0,0.24-0.04,0.46-0.11,0.64c-0.13,0.34-0.38,0.67-0.76,0.99L257.05,164.99z"/>
	<path class="st10" d="M272.2,164.39l0.11,0c0.07-0.01,0.13-0.02,0.17-0.05c0.04-0.02,0.07-0.06,0.09-0.12l0.45-1.64
		c0.01-0.03,0.01-0.05,0.02-0.07c0-0.02,0.01-0.04,0.01-0.05c0-0.04-0.01-0.06-0.04-0.08c-0.03-0.01-0.06-0.02-0.12-0.02l-0.16,0.01
		v-0.05l0.04-0.01c0.03,0,0.11-0.02,0.24-0.05c0.13-0.03,0.22-0.04,0.28-0.06l0.05-0.01l0.03,0l0.02,0.01c0,0.01,0,0.01,0,0.02
		c0,0.01,0,0.01,0,0.02l-0.54,1.99c0,0.01,0,0.02-0.01,0.03c0,0.01,0,0.02,0,0.03c0,0.04,0.02,0.07,0.06,0.08s0.11,0.02,0.23,0.02
		v0.05h-0.93V164.39z"/>
	<path class="st10" d="M274.11,164.43c-0.04-0.04-0.05-0.08-0.05-0.13c0-0.05,0.02-0.09,0.05-0.13s0.08-0.05,0.13-0.05
		s0.09,0.02,0.13,0.05s0.05,0.08,0.05,0.13c0,0.05-0.02,0.09-0.05,0.13c-0.04,0.04-0.08,0.05-0.13,0.05S274.14,164.46,274.11,164.43
		z"/>
	<path class="st10" d="M274.73,164.45c-0.1-0.03-0.15-0.09-0.15-0.17c0-0.04,0.01-0.08,0.04-0.1c0.03-0.02,0.06-0.04,0.09-0.04
		c0.04,0,0.11,0.03,0.19,0.09c0.08,0.06,0.16,0.1,0.22,0.1c0.14,0,0.27-0.07,0.39-0.2c0.12-0.13,0.18-0.3,0.18-0.49
		c0-0.22-0.08-0.38-0.25-0.48c-0.09-0.06-0.26-0.11-0.48-0.15v-0.05l0.35-0.73h0.85l-0.08,0.24h-0.76l-0.14,0.29
		c0.24,0.04,0.43,0.12,0.56,0.25c0.13,0.13,0.19,0.3,0.19,0.52c0,0.24-0.1,0.46-0.29,0.66c-0.2,0.19-0.44,0.29-0.72,0.29
		C274.85,164.47,274.79,164.46,274.73,164.45z"/>
	<path class="st10" d="M278.07,162.27c-0.1,0.11-0.18,0.21-0.25,0.3c-0.11,0.16-0.2,0.35-0.27,0.57c-0.06,0.19-0.1,0.38-0.13,0.55
		c-0.02,0.17-0.04,0.32-0.04,0.44c0,0.18,0.01,0.33,0.03,0.45c0.02,0.12,0.06,0.27,0.13,0.46l-0.06,0.02c-0.12-0.2-0.2-0.4-0.25-0.6
		c-0.05-0.2-0.08-0.4-0.08-0.6c0-0.26,0.04-0.5,0.13-0.7c0.13-0.3,0.38-0.61,0.73-0.93L278.07,162.27z"/>
	<path class="st10" d="M278.07,164.24c0.03-0.02,0.05-0.03,0.08-0.03c0.01,0,0.03,0,0.04,0.01c0.01,0,0.03,0.01,0.04,0.02l0.06,0.03
		c0.01,0,0.01,0.01,0.02,0.01s0.01,0,0.02,0c0.03,0,0.05-0.01,0.06-0.02c0.01-0.01,0.05-0.06,0.11-0.14
		c0.04-0.05,0.13-0.18,0.27-0.39c0-0.01-0.01-0.07-0.04-0.17c-0.03-0.11-0.05-0.2-0.07-0.28s-0.04-0.13-0.06-0.15
		c-0.02-0.02-0.05-0.04-0.09-0.04c-0.01,0-0.04,0-0.09,0.02c-0.03,0.01-0.06,0.01-0.09,0.02l-0.01-0.05l0.18-0.06
		c0.05-0.02,0.09-0.03,0.13-0.04c0.04-0.01,0.07-0.01,0.1-0.01c0.05,0,0.08,0.01,0.1,0.04c0.04,0.04,0.06,0.13,0.09,0.26l0.03,0.18
		c0.1-0.15,0.17-0.25,0.23-0.31c0.05-0.05,0.09-0.1,0.14-0.12c0.04-0.03,0.08-0.04,0.12-0.04c0.04,0,0.07,0.01,0.09,0.02
		c0.04,0.02,0.06,0.06,0.06,0.11c0,0.04-0.01,0.07-0.03,0.09s-0.05,0.03-0.08,0.03c-0.01,0-0.02,0-0.03,0
		c-0.01,0-0.02-0.01-0.03-0.01l-0.04-0.02c-0.01-0.01-0.02-0.01-0.03-0.01c-0.01,0-0.02,0-0.02,0c-0.05,0-0.12,0.06-0.2,0.19
		s-0.13,0.2-0.13,0.22c0,0.02,0.01,0.07,0.03,0.16c0.02,0.09,0.04,0.18,0.07,0.28c0.02,0.09,0.04,0.16,0.06,0.19
		c0.02,0.06,0.05,0.09,0.08,0.09c0.03,0,0.06-0.02,0.09-0.05s0.08-0.09,0.14-0.17l0.04,0.03c-0.05,0.08-0.09,0.16-0.14,0.22
		c-0.09,0.11-0.18,0.17-0.27,0.17c-0.05,0-0.1-0.03-0.13-0.08c-0.02-0.03-0.04-0.08-0.05-0.15l-0.1-0.4l-0.33,0.44
		c-0.07,0.08-0.12,0.13-0.15,0.15c-0.04,0.03-0.08,0.04-0.13,0.04c-0.07,0-0.12-0.02-0.14-0.07c-0.01-0.02-0.02-0.05-0.02-0.08
		C278.04,164.29,278.05,164.26,278.07,164.24z"/>
	<path class="st10" d="M279.66,164.99c0.11-0.12,0.2-0.23,0.26-0.31c0.1-0.16,0.19-0.34,0.25-0.55c0.06-0.18,0.1-0.36,0.13-0.53
		s0.04-0.34,0.04-0.49c0-0.19-0.02-0.36-0.05-0.51c-0.03-0.15-0.07-0.27-0.11-0.36l0.06-0.02c0.1,0.17,0.18,0.35,0.24,0.56
		c0.06,0.21,0.09,0.42,0.09,0.63c0,0.24-0.04,0.46-0.11,0.64c-0.13,0.34-0.38,0.67-0.76,0.99L279.66,164.99z"/>
	<path class="st10" d="M346.18,162.27c-0.1,0.11-0.18,0.21-0.25,0.3c-0.11,0.16-0.2,0.35-0.27,0.57c-0.06,0.19-0.1,0.38-0.13,0.55
		c-0.02,0.17-0.04,0.32-0.04,0.44c0,0.18,0.01,0.33,0.03,0.45c0.02,0.12,0.06,0.27,0.13,0.46l-0.06,0.02c-0.12-0.2-0.2-0.4-0.25-0.6
		c-0.05-0.2-0.08-0.4-0.08-0.6c0-0.26,0.04-0.5,0.13-0.7c0.13-0.3,0.38-0.61,0.73-0.93L346.18,162.27z"/>
	<path class="st10" d="M346.19,164.89c0.02-0.03,0.05-0.04,0.09-0.04c0.03,0,0.05,0.01,0.07,0.02c0.02,0.01,0.04,0.03,0.06,0.04
		l0.02,0.02c0.01,0.01,0.01,0.01,0.02,0.01s0.02,0,0.03,0c0.05,0,0.14-0.07,0.26-0.21s0.18-0.24,0.18-0.3
		c0-0.06-0.02-0.18-0.06-0.36c-0.04-0.18-0.08-0.33-0.12-0.47c-0.05-0.19-0.1-0.33-0.14-0.39c-0.04-0.07-0.11-0.1-0.19-0.1
		c-0.01,0-0.02,0-0.03,0s-0.04,0-0.08,0.01v-0.05l0.44-0.09l0.03,0c0.03,0,0.08,0.12,0.16,0.37c0.07,0.22,0.11,0.38,0.13,0.48
		l0.07,0.39c0.11-0.19,0.2-0.34,0.25-0.44c0.1-0.2,0.16-0.34,0.16-0.42c0-0.02,0-0.04-0.01-0.05c-0.01-0.02-0.02-0.03-0.05-0.05
		l-0.03-0.01c-0.02-0.01-0.04-0.03-0.06-0.05c-0.02-0.02-0.04-0.06-0.04-0.1c0-0.03,0.01-0.06,0.03-0.08s0.05-0.03,0.1-0.03
		c0.05,0,0.1,0.02,0.13,0.05c0.03,0.03,0.05,0.09,0.05,0.16c0,0.12-0.06,0.3-0.19,0.56c-0.1,0.2-0.21,0.38-0.33,0.57
		c-0.15,0.23-0.28,0.41-0.39,0.53c-0.17,0.2-0.31,0.29-0.43,0.29c-0.04,0-0.08-0.01-0.12-0.04s-0.05-0.06-0.05-0.11
		C346.16,164.95,346.17,164.92,346.19,164.89z"/>
	<path class="st10" d="M347.77,164.99c0.11-0.12,0.2-0.23,0.26-0.31c0.1-0.16,0.19-0.34,0.25-0.55c0.06-0.18,0.1-0.36,0.13-0.53
		s0.04-0.34,0.04-0.49c0-0.19-0.02-0.36-0.05-0.51c-0.03-0.15-0.07-0.27-0.11-0.36l0.06-0.02c0.1,0.17,0.18,0.35,0.24,0.56
		c0.06,0.21,0.09,0.42,0.09,0.63c0,0.24-0.04,0.46-0.11,0.64c-0.13,0.34-0.38,0.67-0.76,0.99L347.77,164.99z"/>
	<path class="st10" d="M163.24,96.35c0.03,0.01,0.05,0.02,0.08,0.04l0.08,0.05c0.04,0.03,0.07,0.05,0.1,0.06
		c0.04,0.02,0.09,0.03,0.13,0.03c0.11,0,0.21-0.05,0.29-0.15c0.09-0.1,0.13-0.23,0.13-0.39c0-0.18-0.05-0.32-0.14-0.41
		c-0.1-0.09-0.23-0.14-0.41-0.14c-0.01,0-0.02,0-0.02,0c-0.01,0-0.02,0-0.04,0l0-0.05c0.29-0.04,0.5-0.11,0.62-0.22
		c0.12-0.11,0.18-0.21,0.18-0.32c0-0.07-0.02-0.14-0.06-0.21c-0.04-0.06-0.12-0.1-0.24-0.1c-0.07,0-0.13,0.02-0.2,0.05
		c-0.06,0.04-0.12,0.09-0.17,0.16l-0.05-0.02c0.06-0.12,0.14-0.2,0.23-0.26c0.09-0.05,0.19-0.08,0.3-0.08
		c0.14,0,0.26,0.04,0.35,0.11s0.13,0.18,0.13,0.3c0,0.13-0.05,0.23-0.16,0.32c-0.07,0.06-0.19,0.11-0.36,0.18v0.01
		c0.08,0.04,0.14,0.08,0.19,0.13c0.08,0.09,0.12,0.22,0.12,0.38c0,0.22-0.08,0.41-0.26,0.58c-0.18,0.17-0.4,0.26-0.66,0.26
		c-0.09,0-0.17-0.01-0.23-0.03c-0.1-0.03-0.15-0.09-0.15-0.18c0-0.03,0.01-0.06,0.03-0.08c0.02-0.02,0.06-0.04,0.11-0.04
		C163.19,96.34,163.22,96.34,163.24,96.35z"/>
	<path class="st10" d="M165.67,94.46c-0.1,0.11-0.18,0.21-0.25,0.3c-0.11,0.16-0.2,0.35-0.27,0.57c-0.06,0.19-0.1,0.38-0.13,0.55
		c-0.02,0.17-0.04,0.32-0.04,0.44c0,0.18,0.01,0.33,0.03,0.45c0.02,0.12,0.06,0.27,0.13,0.46l-0.06,0.02c-0.12-0.2-0.2-0.4-0.25-0.6
		c-0.05-0.2-0.08-0.4-0.08-0.6c0-0.26,0.04-0.5,0.13-0.7c0.13-0.3,0.38-0.61,0.73-0.93L165.67,94.46z"/>
	<path class="st10" d="M165.68,97.08c0.02-0.03,0.05-0.04,0.09-0.04c0.03,0,0.05,0.01,0.07,0.02c0.02,0.01,0.04,0.03,0.06,0.04
		l0.02,0.02c0.01,0.01,0.01,0.01,0.02,0.01s0.02,0,0.03,0c0.05,0,0.14-0.07,0.26-0.21s0.18-0.24,0.18-0.3
		c0-0.06-0.02-0.18-0.06-0.36c-0.04-0.18-0.08-0.33-0.12-0.47c-0.05-0.19-0.1-0.33-0.14-0.39c-0.04-0.07-0.11-0.1-0.19-0.1
		c-0.01,0-0.02,0-0.03,0s-0.04,0-0.08,0.01v-0.05l0.44-0.09l0.03,0c0.03,0,0.08,0.12,0.16,0.37c0.07,0.22,0.11,0.38,0.13,0.48
		l0.07,0.39c0.11-0.19,0.2-0.34,0.25-0.44c0.1-0.2,0.16-0.34,0.16-0.42c0-0.02,0-0.04-0.01-0.05c-0.01-0.02-0.02-0.03-0.05-0.05
		l-0.03-0.01c-0.02-0.01-0.04-0.03-0.06-0.05c-0.02-0.02-0.04-0.06-0.04-0.1c0-0.03,0.01-0.06,0.03-0.08s0.05-0.03,0.1-0.03
		c0.05,0,0.1,0.02,0.13,0.05c0.03,0.03,0.05,0.09,0.05,0.16c0,0.12-0.06,0.3-0.19,0.56c-0.1,0.2-0.21,0.38-0.33,0.57
		c-0.15,0.23-0.28,0.41-0.39,0.53c-0.17,0.2-0.31,0.29-0.43,0.29c-0.04,0-0.08-0.01-0.12-0.04s-0.05-0.06-0.05-0.11
		C165.65,97.14,165.66,97.11,165.68,97.08z"/>
	<path class="st10" d="M167.26,97.18c0.11-0.12,0.2-0.23,0.26-0.31c0.1-0.16,0.19-0.34,0.25-0.55c0.06-0.18,0.1-0.36,0.13-0.53
		s0.04-0.34,0.04-0.49c0-0.19-0.02-0.36-0.05-0.51c-0.03-0.15-0.07-0.27-0.11-0.36l0.06-0.02c0.1,0.17,0.18,0.35,0.24,0.56
		c0.06,0.21,0.09,0.42,0.09,0.63c0,0.24-0.04,0.46-0.11,0.64c-0.13,0.34-0.38,0.67-0.76,0.99L167.26,97.18z"/>
	<line class="st7" x1="264.17" y1="0" x2="264.17" y2="185.88"/>
	<line class="st7" x1="286.66" y1="185.88" x2="286.66" y2="0"/>
	<path class="st10" d="M366.54,163.68c0.08-0.15,0.19-0.26,0.33-0.35c0.14-0.09,0.28-0.14,0.42-0.14c0.14,0,0.25,0.05,0.33,0.14
		c0.09,0.09,0.13,0.22,0.13,0.36c0,0.21-0.08,0.41-0.25,0.58c-0.17,0.17-0.36,0.26-0.57,0.26c-0.19,0-0.34-0.07-0.47-0.21
		c-0.12-0.14-0.18-0.33-0.18-0.55c0-0.39,0.14-0.73,0.42-1.04c0.28-0.31,0.6-0.46,0.95-0.46c0.13,0,0.26,0.02,0.39,0.06l-0.22,0.22
		c-0.13-0.08-0.27-0.12-0.42-0.12c-0.22,0-0.4,0.09-0.55,0.28c-0.09,0.11-0.16,0.26-0.23,0.44c-0.06,0.18-0.09,0.35-0.09,0.5V163.68
		z M366.56,163.85c0.07,0.36,0.25,0.54,0.53,0.54c0.12,0,0.23-0.05,0.31-0.14c0.08-0.09,0.13-0.2,0.13-0.34
		c0-0.16-0.04-0.28-0.12-0.39c-0.08-0.1-0.19-0.15-0.31-0.15C366.83,163.38,366.65,163.53,366.56,163.85z"/>
	<line class="st7" x1="325.5" y1="185.87" x2="325.5" y2="0"/>
	<path class="st10" d="M326.09,164.39l0.11,0c0.07-0.01,0.13-0.02,0.17-0.05c0.04-0.02,0.07-0.06,0.09-0.12l0.45-1.64
		c0.01-0.03,0.01-0.05,0.02-0.07c0-0.02,0.01-0.04,0.01-0.05c0-0.04-0.01-0.06-0.04-0.08c-0.03-0.01-0.06-0.02-0.12-0.02l-0.16,0.01
		v-0.05l0.04-0.01c0.03,0,0.11-0.02,0.24-0.05c0.13-0.03,0.22-0.04,0.28-0.06l0.05-0.01l0.03,0l0.02,0.01c0,0.01,0,0.01,0,0.02
		c0,0.01,0,0.01,0,0.02l-0.54,1.99c0,0.01,0,0.02-0.01,0.03c0,0.01,0,0.02,0,0.03c0,0.04,0.02,0.07,0.06,0.08s0.11,0.02,0.23,0.02
		v0.05h-0.93V164.39z"/>
	<path class="st10" d="M328.4,162.26h0.16l-0.84,2.24h-0.16L328.4,162.26z"/>
	<path class="st10" d="M327.25,166.26c-0.1,0.11-0.18,0.21-0.25,0.3c-0.11,0.16-0.2,0.35-0.27,0.57c-0.06,0.19-0.1,0.38-0.13,0.55
		c-0.02,0.17-0.04,0.32-0.04,0.44c0,0.18,0.01,0.33,0.03,0.45c0.02,0.12,0.06,0.27,0.13,0.46l-0.06,0.02c-0.12-0.2-0.2-0.4-0.25-0.6
		c-0.05-0.2-0.08-0.4-0.08-0.6c0-0.26,0.04-0.5,0.13-0.7c0.13-0.3,0.38-0.61,0.73-0.93L327.25,166.26z"/>
	<path class="st10" d="M327.26,168.88c0.02-0.03,0.05-0.04,0.09-0.04c0.03,0,0.05,0.01,0.07,0.02c0.02,0.01,0.04,0.03,0.06,0.04
		l0.02,0.02c0.01,0.01,0.01,0.01,0.02,0.01s0.02,0,0.03,0c0.05,0,0.14-0.07,0.26-0.21s0.18-0.24,0.18-0.3
		c0-0.06-0.02-0.18-0.06-0.36c-0.04-0.18-0.08-0.33-0.12-0.47c-0.05-0.19-0.1-0.33-0.14-0.39c-0.04-0.07-0.11-0.1-0.19-0.1
		c-0.01,0-0.02,0-0.03,0s-0.04,0-0.08,0.01v-0.05l0.44-0.09l0.03,0c0.03,0,0.08,0.12,0.16,0.37c0.07,0.22,0.11,0.38,0.13,0.48
		l0.07,0.39c0.11-0.19,0.2-0.34,0.25-0.44c0.1-0.2,0.16-0.34,0.16-0.42c0-0.02,0-0.04-0.01-0.05c-0.01-0.02-0.02-0.03-0.05-0.05
		l-0.03-0.01c-0.02-0.01-0.04-0.03-0.06-0.05c-0.02-0.02-0.04-0.06-0.04-0.1c0-0.03,0.01-0.06,0.03-0.08s0.05-0.03,0.1-0.03
		c0.05,0,0.1,0.02,0.13,0.05c0.03,0.03,0.05,0.09,0.05,0.16c0,0.12-0.06,0.3-0.19,0.56c-0.1,0.2-0.21,0.38-0.33,0.57
		c-0.15,0.23-0.28,0.41-0.39,0.53c-0.17,0.2-0.31,0.29-0.43,0.29c-0.04,0-0.08-0.01-0.12-0.04s-0.05-0.06-0.05-0.11
		C327.23,168.93,327.24,168.9,327.26,168.88z"/>
	<path class="st10" d="M328.84,168.98c0.11-0.12,0.2-0.23,0.26-0.31c0.1-0.16,0.19-0.34,0.25-0.55c0.06-0.18,0.1-0.36,0.13-0.53
		s0.04-0.34,0.04-0.49c0-0.19-0.02-0.36-0.05-0.51c-0.03-0.15-0.07-0.27-0.11-0.36l0.06-0.02c0.1,0.17,0.18,0.35,0.24,0.56
		c0.06,0.21,0.09,0.42,0.09,0.63c0,0.24-0.04,0.46-0.11,0.64c-0.13,0.34-0.38,0.67-0.76,0.99L328.84,168.98z"/>
	<path class="st10" d="M328.93,163.68c0.08-0.15,0.19-0.26,0.33-0.35c0.14-0.09,0.28-0.14,0.42-0.14c0.14,0,0.25,0.05,0.33,0.14
		c0.09,0.09,0.13,0.22,0.13,0.36c0,0.21-0.08,0.41-0.25,0.58c-0.17,0.17-0.36,0.26-0.57,0.26c-0.19,0-0.34-0.07-0.47-0.21
		c-0.12-0.14-0.18-0.33-0.18-0.55c0-0.39,0.14-0.73,0.42-1.04c0.28-0.31,0.6-0.46,0.95-0.46c0.13,0,0.26,0.02,0.39,0.06l-0.22,0.22
		c-0.13-0.08-0.27-0.12-0.42-0.12c-0.22,0-0.4,0.09-0.55,0.28c-0.09,0.11-0.16,0.26-0.23,0.44c-0.06,0.18-0.09,0.35-0.09,0.5V163.68
		z M328.95,163.85c0.07,0.36,0.25,0.54,0.53,0.54c0.12,0,0.23-0.05,0.31-0.14c0.08-0.09,0.13-0.2,0.13-0.34
		c0-0.16-0.04-0.28-0.12-0.39c-0.08-0.1-0.19-0.15-0.31-0.15C329.22,163.38,329.05,163.53,328.95,163.85z"/>
	<line class="st6" x1="178.61" y1="185.88" x2="178.61" y2="0"/>
	<path class="st11" d="M286.66,27.41V0h11.5v27.8c0,4.55,2.34,7.6,7.99,7.6c5.33,0,7.86-3.25,7.86-7.79V0h11.5v27.41
		c0,10.72-6.43,17.21-19.35,17.21C293.16,44.62,286.66,38.26,286.66,27.41z"/>
	<path class="st11" d="M325.5,158.47v27.41H314v-27.8c0-4.55-2.34-7.6-7.99-7.6c-5.33,0-7.86,3.25-7.86,7.79v27.6h-11.5v-27.41
		c0-10.72,6.43-17.21,19.35-17.21C319,141.26,325.5,147.63,325.5,158.47z"/>
	<path class="st11" d="M139.76,94.6V67.2h11.5v27.8c0,4.55,2.34,7.6,7.99,7.6c5.33,0,7.86-3.25,7.86-7.79V67.2h11.5V94.6
		c0,10.72-6.43,17.21-19.35,17.21C146.25,111.82,139.76,105.45,139.76,94.6z"/>
	<path class="st11" d="M481.96,74.76h27.41v11.5h-27.8c-4.55,0-7.6,2.34-7.6,7.99c0,5.33,3.25,7.86,7.79,7.86h27.6v11.5h-27.41
		c-10.72,0-17.21-6.43-17.21-19.35C464.75,81.25,471.12,74.76,481.96,74.76z"/>
	<path class="st11" d="M27.41,113.6H0l0-11.5h27.8c4.55,0,7.6-2.34,7.6-7.99c0-5.33-3.25-7.86-7.79-7.86H0l0-11.5h27.41
		c10.72,0,17.21,6.43,17.21,19.35C44.62,107.1,38.25,113.6,27.41,113.6z"/>
	<line class="st12" x1="0" y1="44.62" x2="507.24" y2="44.62"/>
	<line class="st12" x1="0" y1="141.26" x2="509.33" y2="141.26"/>
</g>
</svg>
